<?xml version="1.0" encoding="utf-8"?>
<!-- Generator: Adobe Illustrator 24.1.1, SVG Export Plug-In . SVG Version: 6.00 Build 0)  -->
<svg version="1.1" id="Layer_1" xmlns="http://www.w3.org/2000/svg" xmlns:xlink="http://www.w3.org/1999/xlink" x="0px" y="0px"
	 viewBox="0 0 512 512" style="enable-background:new 0 0 512 512;" xml:space="preserve">
<style type="text/css">
	.st0{fill:#FFFFFF;}
	.st1{fill:#003580;}
</style>
<g>
	<path class="st0" d="M503.5,186.2C473.1,78.7,374.3,0,257.2,0c-0.6,0-1.2,0-1.8,0v186.2H503.5z"/>
	<path class="st0" d="M115.7,42.6C65.4,76,27.6,126.7,10.8,186.2h104.9V42.6z"/>
	<path class="st0" d="M10.8,325.8C27.6,385.3,65.4,436,115.7,469.4V325.8H10.8z"/>
	<path class="st0" d="M503.5,325.8H255.3V512c0.6,0,1.2,0,1.8,0C374.3,512,473.1,433.3,503.5,325.8z"/>
	<path class="st1" d="M115.7,186.2H10.8c-6.3,22.2-9.6,45.6-9.6,69.8s3.4,47.6,9.6,69.8h104.9V186.2z"/>
	<path class="st1" d="M255.3,325.8h248.2c6.3-22.2,9.6-45.6,9.6-69.8s-3.4-47.6-9.6-69.8H255.3V325.8z"/>
	<path class="st1" d="M255.3,186.2V0c-51.6,0.4-99.6,16-139.6,42.6v143.6v139.6v143.6c40.1,26.6,88,42.2,139.6,42.6V325.8V186.2z"/>
</g>
</svg>
