<svg xmlns="http://www.w3.org/2000/svg" xmlns:xlink="http://www.w3.org/1999/xlink" viewBox="0 0 26.13 27.6">
  <defs>
    <clipPath id="clip-path" transform="translate(0.13 1.2)">
      <circle cx="13" cy="13" r="13" style="fill: none"/>
    </clipPath>
  </defs>
  <g id="Layer_2" data-name="Layer 2">
    <g id="Layer_8" data-name="Layer 8">
      <g style="clip-path: url(#clip-path)">
        <g>
          <rect id="_59" data-name="59" x="0.13" width="26" height="27.6" style="fill: #fff"/>
          <rect id="_58" data-name="58" x="0.13" width="26" height="2.12" style="fill: #b22234"/>
          <rect id="_57" data-name="57" x="0.13" y="4.25" width="26" height="2.12" style="fill: #b22234"/>
          <rect id="_56" data-name="56" x="0.13" y="8.49" width="26" height="2.12" style="fill: #b22234"/>
          <rect id="_55" data-name="55" x="0.13" y="12.74" width="26" height="2.12" style="fill: #b22234"/>
          <rect id="_54" data-name="54" x="0.13" y="16.98" width="26" height="2.12" style="fill: #b22234"/>
          <rect id="_53" data-name="53" x="0.13" y="21.23" width="26" height="2.12" style="fill: #b22234"/>
          <rect id="_52" data-name="52" x="0.13" y="25.47" width="26" height="2.12" style="fill: #b22234"/>
          <rect id="_51" data-name="51" x="0.13" y="1.2" width="12.9" height="13.66" style="fill: #3c3b6e"/>
          <polygon id="_48" data-name="48" points="0 1.21 0.5 1.57 0.31 2.16 0.81 1.79 1.31 2.16 1.12 1.57 1.62 1.21 1 1.21 0.81 0.62 0.62 1.21 0 1.21" style="fill: #fff"/>
          <polygon id="_47" data-name="47" points="3.48 1.21 3.98 1.57 3.79 2.16 4.29 1.79 4.79 2.16 4.59 1.57 5.09 1.21 4.48 1.21 4.29 0.62 4.09 1.21 3.48 1.21" style="fill: #fff"/>
          <polygon id="_46" data-name="46" points="6.95 1.21 7.45 1.57 7.26 2.16 7.76 1.79 8.26 2.16 8.07 1.57 8.57 1.21 7.95 1.21 7.76 0.62 7.57 1.21 6.95 1.21" style="fill: #fff"/>
          <polygon id="_45" data-name="45" points="10.43 1.21 10.93 1.57 10.74 2.16 11.24 1.79 11.74 2.16 11.55 1.57 12.05 1.21 11.43 1.21 11.24 0.62 11.05 1.21 10.43 1.21" style="fill: #fff"/>
          <polygon id="_42" data-name="42" points="1.74 2.7 2.24 3.06 2.05 3.65 2.55 3.28 3.05 3.65 2.86 3.06 3.35 2.7 2.74 2.7 2.55 2.11 2.36 2.7 1.74 2.7" style="fill: #fff"/>
          <polygon id="_41" data-name="41" points="5.22 2.7 5.71 3.06 5.53 3.65 6.02 3.28 6.52 3.65 6.33 3.06 6.83 2.7 6.21 2.7 6.02 2.11 5.83 2.7 5.22 2.7" style="fill: #fff"/>
          <polygon id="_40" data-name="40" points="8.69 2.7 9.19 3.06 9 3.65 9.5 3.28 10 3.65 9.81 3.06 10.31 2.7 9.69 2.7 9.5 2.11 9.31 2.7 8.69 2.7" style="fill: #fff"/>
          <polygon id="_37" data-name="37" points="0 4.19 0.5 4.55 0.31 5.14 0.81 4.77 1.31 5.14 1.12 4.55 1.62 4.19 1 4.19 0.81 3.6 0.62 4.19 0 4.19" style="fill: #fff"/>
          <polygon id="_36" data-name="36" points="3.48 4.19 3.98 4.55 3.79 5.14 4.29 4.77 4.79 5.14 4.59 4.55 5.09 4.19 4.48 4.19 4.29 3.6 4.09 4.19 3.48 4.19" style="fill: #fff"/>
          <polygon id="_35" data-name="35" points="6.95 4.19 7.45 4.55 7.26 5.14 7.76 4.77 8.26 5.14 8.07 4.55 8.57 4.19 7.95 4.19 7.76 3.6 7.57 4.19 6.95 4.19" style="fill: #fff"/>
          <polygon id="_34" data-name="34" points="10.43 4.19 10.93 4.55 10.74 5.14 11.24 4.77 11.74 5.14 11.55 4.55 12.05 4.19 11.43 4.19 11.24 3.6 11.05 4.19 10.43 4.19" style="fill: #fff"/>
          <polygon id="_31" data-name="31" points="1.78 5.68 2.28 6.04 2.09 6.63 2.59 6.27 3.09 6.63 2.9 6.04 3.4 5.68 2.78 5.68 2.59 5.09 2.4 5.68 1.78 5.68" style="fill: #fff"/>
          <polygon id="_30" data-name="30" points="5.26 5.68 5.76 6.04 5.57 6.63 6.07 6.27 6.57 6.63 6.38 6.04 6.88 5.68 6.26 5.68 6.07 5.09 5.88 5.68 5.26 5.68" style="fill: #fff"/>
          <polygon id="_29" data-name="29" points="8.74 5.68 9.24 6.04 9.04 6.63 9.54 6.27 10.04 6.63 9.85 6.04 10.35 5.68 9.73 5.68 9.54 5.09 9.35 5.68 8.74 5.68" style="fill: #fff"/>
          <polygon id="_26" data-name="26" points="0.05 7.16 0.55 7.52 0.36 8.11 0.86 7.75 1.36 8.11 1.17 7.52 1.67 7.16 1.05 7.16 0.86 6.57 0.67 7.16 0.05 7.16" style="fill: #fff"/>
          <polygon id="_25" data-name="25" points="3.53 7.16 4.03 7.52 3.84 8.11 4.34 7.75 4.84 8.11 4.65 7.52 5.15 7.16 4.53 7.16 4.34 6.57 4.15 7.16 3.53 7.16" style="fill: #fff"/>
          <polygon id="_24" data-name="24" points="7.01 7.16 7.51 7.52 7.32 8.11 7.82 7.75 8.31 8.11 8.12 7.52 8.62 7.16 8.01 7.16 7.82 6.57 7.63 7.16 7.01 7.16" style="fill: #fff"/>
          <polygon id="_23" data-name="23" points="10.48 7.16 10.98 7.52 10.79 8.11 11.29 7.75 11.79 8.11 11.6 7.52 12.1 7.16 11.48 7.16 11.29 6.57 11.1 7.16 10.48 7.16" style="fill: #fff"/>
          <polygon id="_20" data-name="20" points="0.09 10.09 0.58 10.46 0.39 11.04 0.89 10.68 1.39 11.04 1.2 10.46 1.7 10.09 1.08 10.09 0.89 9.51 0.7 10.09 0.09 10.09" style="fill: #fff"/>
          <polygon id="_19" data-name="19" points="3.56 10.09 4.06 10.46 3.87 11.04 4.37 10.68 4.87 11.04 4.68 10.46 5.18 10.09 4.56 10.09 4.37 9.51 4.18 10.09 3.56 10.09" style="fill: #fff"/>
          <polygon id="_18" data-name="18" points="7.04 10.09 7.54 10.46 7.35 11.04 7.85 10.68 8.35 11.04 8.16 10.46 8.66 10.09 8.04 10.09 7.85 9.51 7.66 10.09 7.04 10.09" style="fill: #fff"/>
          <polygon id="_17" data-name="17" points="10.52 10.09 11.02 10.46 10.83 11.04 11.32 10.68 11.82 11.04 11.63 10.46 12.13 10.09 11.52 10.09 11.32 9.51 11.13 10.09 10.52 10.09" style="fill: #fff"/>
          <polygon id="_14" data-name="14" points="0.04 13.06 0.54 13.42 0.35 14.01 0.85 13.65 1.35 14.01 1.16 13.42 1.66 13.06 1.04 13.06 0.85 12.47 0.66 13.06 0.04 13.06" style="fill: #fff"/>
          <polygon id="_13" data-name="13" points="3.52 13.06 4.02 13.42 3.83 14.01 4.33 13.65 4.83 14.01 4.64 13.42 5.14 13.06 4.52 13.06 4.33 12.47 4.14 13.06 3.52 13.06" style="fill: #fff"/>
          <polygon id="_12" data-name="12" points="7 13.06 7.5 13.42 7.31 14.01 7.81 13.65 8.3 14.01 8.11 13.42 8.61 13.06 8 13.06 7.81 12.47 7.62 13.06 7 13.06" style="fill: #fff"/>
          <polygon id="_11" data-name="11" points="10.47 13.06 10.97 13.42 10.78 14.01 11.28 13.65 11.78 14.01 11.59 13.42 12.09 13.06 11.47 13.06 11.28 12.47 11.09 13.06 10.47 13.06" style="fill: #fff"/>
          <polygon id="_8" data-name="8" points="1.79 8.61 2.29 8.97 2.1 9.56 2.6 9.2 3.1 9.56 2.91 8.97 3.41 8.61 2.79 8.61 2.6 8.02 2.41 8.61 1.79 8.61" style="fill: #fff"/>
          <polygon id="_7" data-name="7" points="5.27 8.61 5.77 8.97 5.58 9.56 6.08 9.2 6.58 9.56 6.39 8.97 6.89 8.61 6.27 8.61 6.08 8.02 5.89 8.61 5.27 8.61" style="fill: #fff"/>
          <polygon id="_6" data-name="6" points="8.75 8.61 9.25 8.97 9.05 9.56 9.55 9.2 10.05 9.56 9.86 8.97 10.36 8.61 9.74 8.61 9.55 8.02 9.36 8.61 8.75 8.61" style="fill: #fff"/>
          <polygon id="_3" data-name="3" points="1.78 11.57 2.28 11.94 2.09 12.53 2.59 12.16 3.09 12.53 2.9 11.94 3.4 11.57 2.78 11.57 2.59 10.99 2.4 11.57 1.78 11.57" style="fill: #fff"/>
          <polygon id="_2" data-name="2" points="5.26 11.57 5.76 11.94 5.57 12.53 6.07 12.16 6.57 12.53 6.38 11.94 6.88 11.57 6.26 11.57 6.07 10.99 5.88 11.57 5.26 11.57" style="fill: #fff"/>
          <polygon id="_1" data-name="1" points="8.74 11.57 9.24 11.94 9.04 12.53 9.54 12.16 10.04 12.53 9.85 11.94 10.35 11.57 9.73 11.57 9.54 10.99 9.35 11.57 8.74 11.57" style="fill: #fff"/>
        </g>
      </g>
    </g>
  </g>
</svg>
