<?xml version="1.0" encoding="utf-8"?>
<!-- Generator: Adobe Illustrator 24.1.1, SVG Export Plug-In . SVG Version: 6.00 Build 0)  -->
<svg version="1.1" id="Layer_1" xmlns="http://www.w3.org/2000/svg" xmlns:xlink="http://www.w3.org/1999/xlink" x="0px" y="0px"
	 viewBox="0 0 512 512" style="enable-background:new 0 0 512 512;" xml:space="preserve">
<style type="text/css">
	.st0{fill:#006AA7;}
	.st1{fill:#FECC00;}
</style>
<g>
	<path class="st0" d="M5.6,309.5c14,65.6,53.1,122,106.8,158.5V309.5H5.6z"/>
	<path class="st0" d="M215.5,508.8c13.2,2.1,26.7,3.2,40.5,3.2c123,0,225.8-86.8,250.4-202.5H215.5V508.8z"/>
	<path class="st0" d="M112.4,44.1c-54.7,37.2-94.3,95-107.5,162.2h107.5V44.1z"/>
	<path class="st0" d="M215.5,206.3h291.6C484,88.7,380.4,0,256,0c-13.8,0-27.3,1.1-40.5,3.2V206.3z"/>
	<path class="st1" d="M112.4,309.5V468c30.4,20.6,65.4,34.9,103.2,40.9V309.5H112.4z"/>
	<path class="st1" d="M215.5,206.3V3.2c-37.8,6-72.8,20.3-103.2,40.9v162.2H215.5z"/>
	<path class="st1" d="M112.4,206.3H4.8C1.7,222.4,0,239,0,256c0,18.3,1.9,36.2,5.6,53.5h106.8h103.2h290.9
		c3.7-17.2,5.6-35.1,5.6-53.5c0-17-1.7-33.6-4.8-49.7H215.5H112.4z"/>
</g>
</svg>
